<svg width="144" height="143" viewBox="0 0 144 143" fill="none" xmlns="http://www.w3.org/2000/svg">
<g filter="url(#filter0_d)">
<circle cx="70.394" cy="56.3954" r="31.3939" fill="white"/>
</g>
<ellipse cx="70.2515" cy="56.7458" rx="29.5992" ry="29.3142" fill="#F5DCEA"/>
<mask id="mask0" style="mask-type:alpha" maskUnits="userSpaceOnUse" x="40" y="6" width="61" height="80">
<path d="M100.238 56.1452C100.238 72.4218 86.9153 85.6166 70.4805 85.6166C54.0457 85.6166 40.7227 72.4218 40.7227 56.1452C40.7227 39.8687 54.0457 6 70.4805 6C86.9153 6 100.238 39.8687 100.238 56.1452Z" fill="#FEEFE7"/>
</mask>
<g mask="url(#mask0)">
<path d="M103.206 85.4688H38.7305C38.7305 85.4688 39.379 77.5033 43.271 75.9603C44.8444 75.3377 48.4488 73.5613 52.1885 71.6647C53.5772 70.9609 54.9832 70.2405 56.3108 69.5563C56.4509 69.4842 56.5904 69.4121 56.7281 69.3409C57.8155 68.7791 58.8438 68.2476 59.7531 67.7738C61.756 66.7327 63.1897 65.9787 63.4623 65.8354L63.5088 65.8107L64.0013 65.9205C64.6184 66.0578 65.2373 66.1746 65.8576 66.2715C66.4718 66.3706 67.0879 66.4497 67.7044 66.5088C71.1077 66.8406 74.5514 66.6089 77.8927 65.8144L77.9091 65.8107C77.9091 65.8107 79.4237 66.5833 81.6484 67.7059C82.5732 68.1741 83.6221 68.7032 84.7359 69.2617C84.8769 69.332 85.0179 69.4028 85.1602 69.4735C85.7054 69.7458 86.2632 70.025 86.8285 70.3066C87.43 70.6068 88.04 70.9116 88.6505 71.2132C92.8071 73.2735 96.9698 75.2878 98.6662 75.9603C102.557 77.5033 103.206 85.4688 103.206 85.4688Z" fill="#EF2F4B"/>
<path d="M85.157 69.4728C84.9362 70.1114 84.6824 70.7648 84.3901 71.4159C83.235 73.9882 81.7204 76.0402 79.8867 77.5143C77.5887 79.3613 74.7879 80.2983 71.5603 80.2983C64.8182 80.2983 60.6569 76.3856 58.3533 73.1045C57.4919 71.8781 56.8198 70.6447 56.3076 69.5557C56.4477 69.4835 56.5872 69.4114 56.7249 69.3402C57.2287 70.4158 57.8936 71.6361 58.7466 72.8508C62.0042 77.4839 66.3163 79.8329 71.5603 79.8329C77.2259 79.8329 81.3975 76.9367 83.9601 71.2279C84.2561 70.568 84.5123 69.9071 84.7327 69.2611C84.8736 69.3314 85.0146 69.4021 85.157 69.4728Z" fill="#BC2739"/>
<path d="M81.6541 67.7056C80.8426 71.1664 77.7668 76.4302 70.9739 76.4302C63.5169 76.4302 60.7151 70.4543 59.7588 67.7735C61.7617 66.7324 63.1954 65.9784 63.468 65.8351L63.5145 65.8104L64.007 65.9203C64.6241 66.0576 65.243 66.1744 65.8633 66.2712C66.4775 66.3703 67.0936 66.4494 67.7101 66.5085C71.1134 66.8404 74.5571 66.6086 77.8984 65.8142L77.9148 65.8104C77.9148 65.8104 79.4295 66.583 81.6541 67.7056Z" fill="#BC2739"/>
<path d="M78.2319 67.4385C78.2319 67.4385 76.9673 71.375 71.1575 71.375C64.3806 71.375 62.7852 67.7964 62.7852 67.7964C63.374 66.2508 63.7786 64.8192 64.0521 63.5398H64.053C64.5559 61.1959 64.6259 59.3548 64.5958 58.2257L76.5016 57.7589C76.6116 58.7572 76.7906 59.9324 76.9927 61.1154C77.5313 64.256 78.2319 67.4385 78.2319 67.4385Z" fill="#F89C8F"/>
<path d="M76.9983 61.1157C75.1538 62.3863 71.1213 64.2773 64.0586 63.5401C64.5614 61.1963 64.6314 59.3551 64.6014 58.226L76.5072 57.7592C76.6172 58.7575 76.7962 59.9327 76.9983 61.1157Z" fill="#392139"/>
<path d="M60.0548 42.8473C60.0548 42.8473 56.3705 37.8809 53.5044 40.82C50.6387 43.7595 56.1652 53.9977 61.1808 51.7674L60.0548 42.8473Z" fill="#F89C8F"/>
<path d="M58.2947 48.7188C58.1696 48.7188 58.0606 48.6271 58.0428 48.5014C57.5583 45.0504 54.7889 42.9323 54.7607 42.9109C54.6489 42.8271 54.6268 42.6689 54.7123 42.5576C54.7969 42.4469 54.9567 42.4255 55.0685 42.5097C55.1893 42.6005 58.0338 44.7767 58.547 48.4321C58.5663 48.5698 58.4695 48.6973 58.3299 48.7164L58.2947 48.7188Z" fill="#F3617C"/>
<path d="M57.5255 46.2373C57.4442 46.2373 57.3638 46.1982 57.3149 46.1261C56.9451 45.5844 55.8389 45.5294 55.4451 45.5536C55.3041 45.5634 55.1843 45.4568 55.1753 45.3177C55.1664 45.1785 55.2735 45.0589 55.4136 45.0506C55.4836 45.0459 57.1293 44.9552 57.736 45.8436C57.8149 45.959 57.7849 46.1158 57.6683 46.1936C57.6246 46.2229 57.5748 46.2373 57.5255 46.2373Z" fill="#F3617C"/>
<path d="M82.5049 42.8473C82.5049 42.8473 86.1897 37.8809 89.0553 40.82C91.9215 43.7595 86.3945 53.9977 81.3789 51.7674L82.5049 42.8473Z" fill="#F89C8F"/>
<path d="M84.2626 48.7188L84.2273 48.7164C84.0882 48.6973 83.991 48.5698 84.0102 48.4316C84.5229 44.7767 87.3674 42.6005 87.4882 42.5097C87.6005 42.4255 87.7598 42.4469 87.8448 42.5576C87.9294 42.6689 87.9083 42.8271 87.796 42.9109C87.7683 42.9323 84.9976 45.0578 84.5145 48.5014C84.4966 48.6271 84.3871 48.7188 84.2626 48.7188Z" fill="#F3617C"/>
<path d="M85.0313 46.2373C84.9824 46.2373 84.9326 46.2229 84.8893 46.1936C84.7728 46.1158 84.7423 45.959 84.8212 45.8436C85.4279 44.9551 87.074 45.0463 87.1436 45.0505C87.2841 45.0589 87.3903 45.1785 87.3818 45.3172C87.3734 45.4563 87.2507 45.5629 87.1126 45.5536C86.7169 45.5299 85.6111 45.5867 85.2427 46.1261C85.1934 46.1982 85.113 46.2373 85.0313 46.2373Z" fill="#F3617C"/>
<path d="M73.6307 27.4457C63.1295 27.4406 56.6077 32.8301 57.7802 45.2007C58.48 52.584 62.3146 61.7191 71.1607 61.9258C80.3795 62.1403 84.0793 52.1987 85.396 44.6557C86.6005 37.7523 83.0553 30.1004 76.3333 27.9176C75.8671 27.7669 74.2205 27.4462 73.6307 27.4457Z" fill="#F89C8F"/>
<path d="M57.6569 42.9418C57.6569 42.9418 56.4355 31.2153 56.3993 28.616C56.3124 22.2971 62.7505 18.7516 72.2 18.7716C79.8204 18.7879 80.7594 22.0928 81.3736 24.7675C81.3736 24.7675 87.0077 24.9104 87.8667 28.8012C88.7262 32.6916 85.1505 44.4404 85.1505 44.4404C85.1505 44.4404 83.9512 41.7359 83.0921 37.8451C82.2326 33.9547 81.1146 31.5737 78.6597 31.5248C76.2043 31.4759 73.1351 31.5974 69.8202 33.5428C66.5053 35.4883 63.1913 35.7312 60.8585 34.0292C60.8585 34.0292 60.2354 39.9017 57.6569 42.9418Z" fill="#392139"/>
<path d="M63.1305 49.4326C61.1013 49.4326 59.457 48.7173 59.457 47.8349C59.457 46.9525 61.1013 46.2376 63.1305 46.2376C65.1593 46.2376 66.804 46.9525 66.804 47.8349C66.804 48.7173 65.1593 49.4326 63.1305 49.4326Z" fill="#F57F86"/>
<path d="M80.4196 49.4326C78.3909 49.4326 76.7461 48.7173 76.7461 47.8349C76.7461 46.9525 78.3909 46.2376 80.4196 46.2376C82.4488 46.2376 84.0936 46.9525 84.0936 47.8349C84.0936 48.7173 82.4488 49.4326 80.4196 49.4326Z" fill="#F57F86"/>
<path d="M85.4603 42.9414C85.4603 42.9414 85.3804 48.6502 83.6638 55.8315C80.9099 67.343 71.4642 65.809 71.4642 65.809C71.4642 65.809 62.2018 67.343 59.4479 55.8315C57.7313 48.6502 57.6514 42.9414 57.6514 42.9414L59.1599 40.4459C59.1599 40.4459 60.2172 50.3638 64.05 52.0817C64.05 52.0817 65.7535 49.5154 71.4642 51.9141C77.1739 49.5154 79.0617 52.0817 79.0617 52.0817C82.8945 50.3638 83.9528 40.4459 83.9528 40.4459L85.4603 42.9414Z" fill="#392139"/>
<path d="M71.8927 50.9365C71.4543 50.9365 70.974 50.823 70.4453 50.5958C70.2972 50.5321 70.2089 50.3785 70.2295 50.2193L70.9664 44.6135C70.9928 44.4166 71.176 44.2779 71.3744 44.303C71.5727 44.3291 71.7132 44.5097 71.6874 44.7061L70.9862 50.036C71.7094 50.2984 72.2673 50.2752 72.7283 49.9675C72.8947 49.8563 73.1202 49.9001 73.2326 50.0648C73.3449 50.2296 73.3007 50.453 73.1343 50.5642C72.7626 50.8127 72.3509 50.9365 71.8927 50.9365Z" fill="#F3617C"/>
<path d="M71.8115 57.354C70.9896 57.354 70.3312 57.1557 70.2851 57.1413C70.0934 57.0822 69.9872 56.8806 70.0469 56.6907C70.1061 56.5013 70.3096 56.3961 70.5008 56.4543C70.5168 56.4594 72.1282 56.9412 73.2613 56.3063C73.4356 56.209 73.6574 56.2695 73.7561 56.4422C73.8548 56.6158 73.7932 56.835 73.6189 56.9328C73.0394 57.2572 72.3853 57.354 71.8115 57.354Z" fill="#693A68"/>
<path d="M64.136 41.3703C64.918 40.9538 66.0595 40.4404 67.1695 40.2794C67.7663 40.1933 68.1414 39.5994 67.9379 39.0376L67.8965 38.9241C67.7499 38.5178 67.3424 38.2632 66.9096 38.3088C65.919 38.4126 64.1642 38.7565 63.019 39.8866C62.7713 40.1314 62.6848 40.4949 62.7901 40.8258C62.9677 41.3847 63.6148 41.6472 64.136 41.3703Z" fill="#392139"/>
<path d="M79.1697 41.3703C78.3877 40.9538 77.2467 40.4404 76.1357 40.2794C75.5398 40.1933 75.1648 39.5994 75.3683 39.0376L75.4087 38.9241C75.5558 38.5178 75.9628 38.2632 76.3961 38.3088C77.3863 38.4126 79.142 38.7565 80.2868 39.8866C80.5349 40.1314 80.6209 40.4949 80.5161 40.8258C80.338 41.3847 79.6914 41.6472 79.1697 41.3703Z" fill="#392139"/>
<path d="M67.0594 44.1152C67.0763 45.0898 66.7135 45.8866 66.2488 45.8945C65.784 45.9024 65.3935 45.1186 65.3766 44.1446C65.3592 43.1695 65.722 42.3732 66.1867 42.3648C66.6515 42.3574 67.042 43.1407 67.0594 44.1152Z" fill="#392139"/>
<path d="M75.8561 44.1152C75.8387 45.0898 76.2015 45.8866 76.6662 45.8945C77.131 45.9024 77.5215 45.1186 77.5389 44.1446C77.5558 43.1695 77.193 42.3732 76.7282 42.3648C76.2635 42.3574 75.873 43.1407 75.8561 44.1152Z" fill="#392139"/>
<path d="M68.1959 54.8967C68.4442 57.017 70.3233 58.5431 72.3928 58.3053C74.4624 58.0675 75.9388 56.1559 75.6904 54.0356L68.1959 54.8967Z" fill="#F47F86"/>
</g>
<defs>
<filter id="filter0_d" x="0.996799" y="0.216771" width="142.099" height="142.099" filterUnits="userSpaceOnUse" color-interpolation-filters="sRGB">
<feFlood flood-opacity="0" result="BackgroundImageFix"/>
<feColorMatrix in="SourceAlpha" type="matrix" values="0 0 0 0 0 0 0 0 0 0 0 0 0 0 0 0 0 0 127 0" result="hardAlpha"/>
<feOffset dx="1.65231" dy="14.8708"/>
<feGaussianBlur stdDeviation="19.8278"/>
<feColorMatrix type="matrix" values="0 0 0 0 0.658333 0 0 0 0 0.545868 0 0 0 0 0.593104 0 0 0 0.26 0"/>
<feBlend mode="normal" in2="BackgroundImageFix" result="effect1_dropShadow"/>
<feBlend mode="normal" in="SourceGraphic" in2="effect1_dropShadow" result="shape"/>
</filter>
</defs>
</svg>
