<svg width="42" height="42" viewBox="0 0 42 42" fill="none" xmlns="http://www.w3.org/2000/svg">
<circle cx="21" cy="21" r="21" fill="#ECF5FF"/>
<g clip-path="url(#clip0)">
<path d="M29 15.667L33 14L21 9L9 14L13 15.667V20.767C12.372 21.329 12 22.14 12 23C12 24.276 12.823 25.397 13.992 25.816C15.396 29.028 18.043 31 21 31C23.957 31 26.604 29.028 28.008 25.816C29.177 25.397 30 24.276 30 23C30 22.14 29.628 21.329 29 20.767V15.667ZM21 11.167L27.8 14L27 14.333V15.666V17.171C26.687 17.06 26.35 17 26 17H16C15.65 17 15.313 17.06 15 17.171V15.667V14.333L14.2 14L21 11.167ZM27.137 23.981L26.552 24.062L26.341 24.613C25.302 27.319 23.256 29 21 29C18.744 29 16.698 27.319 15.66 24.614L15.449 24.063L14.864 23.982C14.371 23.914 14 23.492 14 23C14 22.64 14.186 22.318 14.498 22.139L15 21.851V20C15 19.448 15.448 19 16 19H26C26.552 19 27 19.448 27 20V21.851L27.502 22.139C27.814 22.318 28 22.64 28 23C28 23.492 27.629 23.914 27.137 23.981Z" fill="#1E88E5"/>
<path d="M31 14H33V20H31V14Z" fill="#1E88E5"/>
<path opacity="0.3" d="M21 10L14 13V18H21H28V13L21 10Z" fill="#1E88E5"/>
</g>
<defs>
<clipPath id="clip0">
<rect width="24" height="24" fill="white" transform="translate(9 9)"/>
</clipPath>
</defs>
</svg>
