<svg width="42" height="42" viewBox="0 0 42 42" fill="none" xmlns="http://www.w3.org/2000/svg">
<circle cx="21" cy="21" r="21" fill="#ECF5FF"/>
<path d="M29 13H13C11.895 13 11 13.895 11 15V27C11 28.105 11.895 29 13 29H15V27H13V15H29V27H27V29H29C30.105 29 31 28.105 31 27V15C31 13.895 30.105 13 29 13Z" fill="#1E88E5"/>
<path d="M21 19C18.791 19 17 20.791 17 23C17 25.209 18.791 27 21 27C23.209 27 25 25.209 25 23C25 20.791 23.209 19 21 19ZM21 25C19.895 25 19 24.105 19 23C19 21.895 19.895 21 21 21C22.105 21 23 21.895 23 23C23 24.105 22.105 25 21 25Z" fill="#1E88E5"/>
<path d="M23 23V29.764L21 28.764L19 29.764V23H17V33L21 31L25 33V23H23Z" fill="#1E88E5"/>
<path opacity="0.3" d="M12 14V27C12 28.105 12.895 29 14 29H18V23C18 21.343 19.343 20 21 20C22.657 20 24 21.343 24 23V29H28C29.105 29 30 28.105 30 27V14H12Z" fill="#1E88E5"/>
</svg>
